# xmcd
#
# Track frame offsets: 
#        150
#        19989
#        37621
#        59888
#        82441
#        102088
#        124266
#        138686
#
# Disc length: 2167 seconds
#
# Revision: 0
# Processed by: cddbd v1.5.2PL0 Copyright (c) Steve Scherf et al.
# Submitted via: ExactAudioCopyFreeDBPlugin 1.0
#
DISCID=74087508
DTITLE=Last Heat - Last Heat
DYEAR=2012
DGENRE=Rock
TTITLE0=Cross The River
TTITLE1=One More Time
TTITLE2=Someone To Turn To
TTITLE3=So Lost
TTITLE4=The Forest
TTITLE5=No One Knows
TTITLE6=Skyline Diver
TTITLE7=She Said
EXTD=
EXTT0=
EXTT1=
EXTT2=
EXTT3=
EXTT4=
EXTT5=
EXTT6=
EXTT7=
PLAYORDER=
